# xmcd
#
# Track frame offsets: 
#        150
#        12470
#        25476
#        37754
#        51294
#        63747
#        76958
#        89350
#        100841
#        114555
#        128398
#        141611
#        154505
#        168731
#        181793
#        194239
#        208209
#        220788
#        231838
#        244092
#
# Disc length: 3432 seconds
#
# Revision: 0
# Processed by: cddbd v1.5.2PL0 Copyright (c) Steve Scherf et al.
# Submitted via: ExactAudioCopy v1.0b3
#
DISCID=1f0d6614
DTITLE=Slim Whitman - Country Music Legends
DYEAR=2007
DGENRE=Country
TTITLE0=I'm Casting My Lasso Towards The Sky
TTITLE1=Birmingham Jail
TTITLE2=Wabash Waltz
TTITLE3=Tears Can Never Drown The Flame
TTITLE4=I'm Crying For You
TTITLE5=Love Song Of The Waterfall
TTITLE6=My Love Is Growing Stale
TTITLE7=Bandera Waltz
TTITLE8=End Of the World
TTITLE9=In A Hundred Years Or More
TTITLE10=Why
TTITLE11=Cold Empty Arms
TTITLE12=Indian Love Call
TTITLE13=China Doll
TTITLE14=An Amateur In Love
TTITLE15=Song Of The Old Water Wheel
TTITLE16=By The Waters Of Minnetonka
TTITLE17=Keep It A Secret
TTITLE18=My Heart Is Broken In Three
TTITLE19=All That I'm Asking Is Sympathy
EXTD=
EXTT0=
EXTT1=
EXTT2=
EXTT3=
EXTT4=
EXTT5=
EXTT6=
EXTT7=
EXTT8=
EXTT9=
EXTT10=
EXTT11=
EXTT12=
EXTT13=
EXTT14=
EXTT15=
EXTT16=
EXTT17=
EXTT18=
EXTT19=
PLAYORDER=
